# xmcd
#
# Track frame offsets:
#	150
#	19725
#	36560
#	51602
#	69352
#	88257
#	108042
#	123540
#	141740
#	160375
#	178772
#	198900
#
# Disc length: 2966 seconds
#
# Revision: 0
# Processed by: cddbd v1.5.2PL0 Copyright (c) Steve Scherf et al.
# Submitted via: EasyCDDAExtractor 2011.3.0.0
#
DISCID=b60b940c
DTITLE=Guadalupe Pineda - De Nuevo Sola
DYEAR=1993
DGENRE=
TTITLE0=Ibas conmigo
TTITLE1=Cuando me fui
TTITLE2=De nuevo sola
TTITLE3=Devuelveme el corazon
TTITLE4=Volvamos a empezar
TTITLE5=Si te hubiera conocido ayer
TTITLE6=Castillos de arena
TTITLE7=Donde manda su amor
TTITLE8=Contigo el sol
TTITLE9=Si te hablan de mi
TTITLE10=Quiero que me quieras
TTITLE11=Quizas mañana
EXTD=
EXTT0=
EXTT1=
EXTT2=
EXTT3=
EXTT4=
EXTT5=
EXTT6=
EXTT7=
EXTT8=
EXTT9=
EXTT10=
EXTT11=
PLAYORDER=
